<svg width="197" height="89" viewBox="0 0 197 89" fill="none" xmlns="http://www.w3.org/2000/svg">
<g clip-path="url(#clip0_503_776)">
<g filter="url(#filter0_f_503_776)">
<path d="M30.0341 81.0007H8.72726L44.8068 8.27344H71.7955L83.7273 81.0007H62.4205L55.3182 28.3018H54.75L30.0341 81.0007ZM30.8864 52.3075H70.9432L68.3864 67.0802H28.3295L30.8864 52.3075ZM90.7319 81.0007L102.806 8.27344H134.198C139.596 8.27344 144.141 9.33878 147.834 11.4695C151.527 13.6001 154.179 16.5949 155.789 20.4538C157.399 24.3127 157.777 28.8227 156.925 33.9837C156.073 39.2393 154.179 43.773 151.243 47.5845C148.331 51.3724 144.614 54.2962 140.093 56.3558C135.595 58.3918 130.552 59.4098 124.965 59.4098H106.215L108.772 44.0689H123.544C125.912 44.0689 127.995 43.6664 129.794 42.8615C131.594 42.0329 133.05 40.8729 134.162 39.3814C135.275 37.8662 135.997 36.067 136.328 33.9837C136.66 31.9003 136.506 30.1248 135.867 28.6569C135.251 27.1655 134.186 26.0291 132.671 25.2479C131.179 24.4429 129.274 24.0405 126.953 24.0405H119.993L110.476 81.0007H90.7319ZM188.175 8.27344L176.101 81.0007H156.357L168.431 8.27344H188.175Z" fill="#B94358"/>
</g>
</g>
<defs>
<filter id="filter0_f_503_776" x="0.727264" y="0.273438" width="195.448" height="88.7266" filterUnits="userSpaceOnUse" color-interpolation-filters="sRGB">
<feFlood flood-opacity="0" result="BackgroundImageFix"/>
<feBlend mode="normal" in="SourceGraphic" in2="BackgroundImageFix" result="shape"/>
<feGaussianBlur stdDeviation="4" result="effect1_foregroundBlur_503_776"/>
</filter>
<clipPath id="clip0_503_776">
<rect width="197" height="89" fill="white"/>
</clipPath>
</defs>
</svg>
