<svg width="314" height="148" viewBox="0 0 314 148" fill="none" xmlns="http://www.w3.org/2000/svg">
<rect x="32.5" y="1.5" width="124" height="38" rx="19" fill="#EBC4C4"/>
<path d="M74.5625 25V16.2727H80.6989V18.1818H76.9318V19.6818H80.3239V21.5909H76.9318V25H74.5625ZM83.9396 16.2727V25H81.5703V16.2727H83.9396ZM90.7301 19.1534C90.6932 19.0028 90.6349 18.8707 90.5554 18.7571C90.4759 18.6406 90.3764 18.5426 90.2571 18.4631C90.1406 18.3807 90.0043 18.3196 89.848 18.2798C89.6946 18.2372 89.5256 18.2159 89.3409 18.2159C88.9432 18.2159 88.6037 18.3111 88.3224 18.5014C88.044 18.6918 87.831 18.9659 87.6832 19.3239C87.5384 19.6818 87.4659 20.1136 87.4659 20.6193C87.4659 21.1307 87.5355 21.5682 87.6747 21.9318C87.8139 22.2955 88.0213 22.5739 88.2969 22.767C88.5724 22.9602 88.9148 23.0568 89.3239 23.0568C89.6847 23.0568 89.9844 23.0043 90.223 22.8991C90.4645 22.794 90.6449 22.6449 90.7642 22.4517C90.8835 22.2585 90.9432 22.0312 90.9432 21.7699L91.3523 21.8125H89.358V20.125H93.2273V21.3352C93.2273 22.1307 93.0582 22.8111 92.7202 23.3764C92.3849 23.9389 91.9219 24.3707 91.331 24.6719C90.7429 24.9702 90.0682 25.1193 89.3068 25.1193C88.4574 25.1193 87.7116 24.9389 87.0696 24.5781C86.4276 24.2173 85.9261 23.7031 85.5653 23.0355C85.2074 22.3679 85.0284 21.5739 85.0284 20.6534C85.0284 19.9318 85.1378 19.2926 85.3565 18.7358C85.5781 18.179 85.8849 17.7088 86.277 17.3253C86.669 16.9389 87.1222 16.6477 87.6364 16.4517C88.1506 16.2528 88.7017 16.1534 89.2898 16.1534C89.8068 16.1534 90.2869 16.2273 90.7301 16.375C91.1761 16.5199 91.5696 16.7273 91.9105 16.9972C92.2543 17.2642 92.5313 17.581 92.7415 17.9474C92.9517 18.3139 93.0795 18.7159 93.125 19.1534H90.7301ZM94.332 16.2727H97.2809L99.3093 21.2159H99.4116L101.44 16.2727H104.389V25H102.071V19.9545H102.002L100.059 24.9318H98.6616L96.7184 19.9205H96.6502V25H94.332V16.2727ZM107.779 25H105.222L108.103 16.2727H111.341L114.222 25H111.665L109.756 18.6761H109.688L107.779 25ZM107.301 21.5568H112.108V23.3295H107.301V21.5568Z" fill="#A52A2A"/>
<rect x="32.5" y="1.5" width="124" height="38" rx="19" stroke="#A52A2A" stroke-width="3"/>
<rect x="148.5" y="51.5" width="149" height="38" rx="19" fill="#EBC4C4"/>
<path d="M190.562 75V66.2727H192.932V69.6818H196.068V66.2727H198.438V75H196.068V71.5909H192.932V75H190.562ZM199.324 68.1818V66.2727H206.909V68.1818H204.284V75H201.949V68.1818H199.324ZM207.801 66.2727H210.75L212.778 71.2159H212.88L214.909 66.2727H217.858V75H215.539V69.9545H215.471L213.528 74.9318H212.13L210.187 69.9205H210.119V75H207.801V66.2727ZM218.98 75V66.2727H221.35V73.0909H224.878V75H218.98ZM230.148 65.8636L227.336 76.3125H225.342L228.154 65.8636H230.148ZM238.929 69.5455H236.526C236.509 69.3466 236.463 69.1662 236.389 69.0043C236.318 68.8423 236.219 68.7031 236.091 68.5866C235.966 68.4673 235.814 68.3764 235.635 68.3139C235.456 68.2486 235.253 68.2159 235.026 68.2159C234.628 68.2159 234.291 68.3125 234.016 68.5057C233.743 68.6989 233.536 68.9759 233.393 69.3366C233.254 69.6974 233.185 70.1307 233.185 70.6364C233.185 71.1705 233.256 71.6179 233.398 71.9787C233.543 72.3366 233.751 72.6065 234.024 72.7884C234.297 72.9673 234.625 73.0568 235.009 73.0568C235.227 73.0568 235.423 73.0298 235.597 72.9759C235.77 72.919 235.92 72.8381 236.048 72.733C236.176 72.6278 236.28 72.5014 236.359 72.3537C236.442 72.2031 236.497 72.0341 236.526 71.8466L238.929 71.8636C238.901 72.233 238.797 72.6094 238.618 72.9929C238.439 73.3736 238.185 73.7259 237.855 74.0497C237.528 74.3707 237.124 74.6293 236.641 74.8253C236.158 75.0213 235.597 75.1193 234.957 75.1193C234.156 75.1193 233.438 74.9474 232.801 74.6037C232.168 74.2599 231.666 73.7543 231.297 73.0866C230.93 72.419 230.747 71.6023 230.747 70.6364C230.747 69.6648 230.935 68.8466 231.31 68.1818C231.685 67.5142 232.19 67.0099 232.827 66.669C233.463 66.3253 234.173 66.1534 234.957 66.1534C235.509 66.1534 236.016 66.2287 236.479 66.3793C236.942 66.5298 237.348 66.75 237.697 67.0398C238.047 67.3267 238.328 67.6804 238.541 68.1009C238.754 68.5213 238.884 69.0028 238.929 69.5455ZM244.708 69C244.686 68.7159 244.579 68.4943 244.389 68.3352C244.201 68.1761 243.916 68.0966 243.532 68.0966C243.288 68.0966 243.088 68.1264 242.931 68.1861C242.778 68.2429 242.664 68.321 242.591 68.4205C242.517 68.5199 242.478 68.6335 242.475 68.7614C242.47 68.8665 242.488 68.9616 242.531 69.0469C242.576 69.1293 242.647 69.2045 242.744 69.2727C242.841 69.3381 242.964 69.3977 243.115 69.4517C243.265 69.5057 243.444 69.554 243.652 69.5966L244.368 69.75C244.85 69.8523 245.264 69.9872 245.608 70.1548C245.951 70.3224 246.233 70.5199 246.451 70.7472C246.67 70.9716 246.831 71.2244 246.933 71.5057C247.038 71.7869 247.092 72.0937 247.095 72.4261C247.092 73 246.949 73.4858 246.664 73.8835C246.38 74.2812 245.974 74.5838 245.446 74.7912C244.92 74.9986 244.288 75.1023 243.549 75.1023C242.791 75.1023 242.129 74.9901 241.564 74.7656C241.001 74.5412 240.564 74.196 240.251 73.7301C239.941 73.2614 239.785 72.6619 239.782 71.9318H242.032C242.047 72.1989 242.113 72.4233 242.233 72.6051C242.352 72.7869 242.52 72.9247 242.735 73.0185C242.954 73.1122 243.214 73.1591 243.515 73.1591C243.768 73.1591 243.98 73.1278 244.15 73.0653C244.321 73.0028 244.45 72.9162 244.538 72.8054C244.626 72.6946 244.672 72.5682 244.674 72.4261C244.672 72.2926 244.627 72.1761 244.542 72.0767C244.46 71.9744 244.324 71.8835 244.133 71.804C243.943 71.7216 243.686 71.6449 243.362 71.5739L242.493 71.3864C241.72 71.2187 241.11 70.9389 240.664 70.5469C240.221 70.152 240.001 69.6136 240.004 68.9318C240.001 68.3778 240.149 67.8935 240.447 67.4787C240.748 67.0611 241.164 66.7358 241.696 66.5028C242.23 66.2699 242.842 66.1534 243.532 66.1534C244.237 66.1534 244.846 66.2713 245.36 66.5071C245.875 66.7429 246.271 67.0753 246.549 67.5043C246.831 67.9304 246.973 68.429 246.975 69H244.708ZM252.701 69C252.678 68.7159 252.571 68.4943 252.381 68.3352C252.194 68.1761 251.908 68.0966 251.525 68.0966C251.28 68.0966 251.08 68.1264 250.924 68.1861C250.77 68.2429 250.657 68.321 250.583 68.4205C250.509 68.5199 250.471 68.6335 250.468 68.7614C250.462 68.8665 250.48 68.9616 250.523 69.0469C250.569 69.1293 250.64 69.2045 250.736 69.2727C250.833 69.3381 250.956 69.3977 251.107 69.4517C251.257 69.5057 251.436 69.554 251.644 69.5966L252.36 69.75C252.843 69.8523 253.256 69.9872 253.6 70.1548C253.944 70.3224 254.225 70.5199 254.444 70.7472C254.662 70.9716 254.823 71.2244 254.925 71.5057C255.03 71.7869 255.084 72.0937 255.087 72.4261C255.084 73 254.941 73.4858 254.657 73.8835C254.373 74.2812 253.966 74.5838 253.438 74.7912C252.912 74.9986 252.28 75.1023 251.542 75.1023C250.783 75.1023 250.121 74.9901 249.556 74.7656C248.993 74.5412 248.556 74.196 248.243 73.7301C247.934 73.2614 247.777 72.6619 247.775 71.9318H250.025C250.039 72.1989 250.105 72.4233 250.225 72.6051C250.344 72.7869 250.512 72.9247 250.728 73.0185C250.946 73.1122 251.206 73.1591 251.507 73.1591C251.76 73.1591 251.972 73.1278 252.142 73.0653C252.313 73.0028 252.442 72.9162 252.53 72.8054C252.618 72.6946 252.664 72.5682 252.667 72.4261C252.664 72.2926 252.62 72.1761 252.534 72.0767C252.452 71.9744 252.316 71.8835 252.125 71.804C251.935 71.7216 251.678 71.6449 251.354 71.5739L250.485 71.3864C249.712 71.2187 249.103 70.9389 248.657 70.5469C248.213 70.152 247.993 69.6136 247.996 68.9318C247.993 68.3778 248.141 67.8935 248.439 67.4787C248.74 67.0611 249.157 66.7358 249.688 66.5028C250.222 66.2699 250.834 66.1534 251.525 66.1534C252.229 66.1534 252.838 66.2713 253.353 66.5071C253.867 66.7429 254.263 67.0753 254.542 67.5043C254.823 67.9304 254.965 68.429 254.968 69H252.701Z" fill="#A52A2A"/>
<rect x="148.5" y="51.5" width="149" height="38" rx="19" stroke="#A52A2A" stroke-width="3"/>
<rect x="1.5" y="51.5" width="124" height="38" rx="19" fill="#EBC4C4"/>
<path d="M45.9489 66.2727L47.7386 72.4261H47.8068L49.5966 66.2727H52.2727L49.392 75H46.1534L43.2727 66.2727H45.9489ZM53.1133 75V66.2727H56.8803C57.5281 66.2727 58.0948 66.3906 58.5806 66.6264C59.0664 66.8622 59.4442 67.2017 59.7141 67.6449C59.984 68.0881 60.119 68.6193 60.119 69.2386C60.119 69.8636 59.9798 70.3906 59.7013 70.8196C59.4258 71.2486 59.038 71.5724 58.538 71.7912C58.0408 72.0099 57.4599 72.1193 56.7951 72.1193H54.5451V70.2784H56.3178C56.5962 70.2784 56.8335 70.2443 57.0295 70.1761C57.2283 70.1051 57.3803 69.9929 57.4854 69.8395C57.5934 69.6861 57.6474 69.4858 57.6474 69.2386C57.6474 68.9886 57.5934 68.7855 57.4854 68.6293C57.3803 68.4702 57.2283 68.3537 57.0295 68.2798C56.8335 68.2031 56.5962 68.1648 56.3178 68.1648H55.4826V75H53.1133ZM58.2269 70.9943L60.4087 75H57.8349L55.7042 70.9943H58.2269ZM65.4414 65.8636L62.6289 76.3125H60.6346L63.4471 65.8636H65.4414ZM68.3413 75H65.7844L68.6651 66.2727H71.9038L74.7844 75H72.2276L70.3185 68.6761H70.2504L68.3413 75ZM67.864 71.5568H72.6708V73.3295H67.864V71.5568ZM75.625 75V66.2727H79.392C80.0398 66.2727 80.6065 66.3906 81.0923 66.6264C81.5781 66.8622 81.956 67.2017 82.2259 67.6449C82.4957 68.0881 82.6307 68.6193 82.6307 69.2386C82.6307 69.8636 82.4915 70.3906 82.2131 70.8196C81.9375 71.2486 81.5497 71.5724 81.0497 71.7912C80.5526 72.0099 79.9716 72.1193 79.3068 72.1193H77.0568V70.2784H78.8295C79.108 70.2784 79.3452 70.2443 79.5412 70.1761C79.7401 70.1051 79.892 69.9929 79.9972 69.8395C80.1051 69.6861 80.1591 69.4858 80.1591 69.2386C80.1591 68.9886 80.1051 68.7855 79.9972 68.6293C79.892 68.4702 79.7401 68.3537 79.5412 68.2798C79.3452 68.2031 79.108 68.1648 78.8295 68.1648H77.9943V75H75.625ZM80.7386 70.9943L82.9205 75H80.3466L78.2159 70.9943H80.7386Z" fill="#A52A2A"/>
<rect x="1.5" y="51.5" width="124" height="38" rx="19" stroke="#A52A2A" stroke-width="3"/>
<rect x="69.5" y="108.5" width="143" height="38" rx="19" fill="#EBC4C4"/>
<path d="M111.562 132V123.273H115.33C115.977 123.273 116.544 123.401 117.03 123.656C117.516 123.912 117.893 124.271 118.163 124.734C118.433 125.197 118.568 125.739 118.568 126.358C118.568 126.983 118.429 127.524 118.151 127.982C117.875 128.439 117.487 128.791 116.987 129.038C116.49 129.286 115.909 129.409 115.244 129.409H112.994V127.568H114.767C115.045 127.568 115.283 127.52 115.479 127.423C115.678 127.324 115.83 127.183 115.935 127.001C116.043 126.82 116.097 126.605 116.097 126.358C116.097 126.108 116.043 125.895 115.935 125.719C115.83 125.54 115.678 125.403 115.479 125.31C115.283 125.213 115.045 125.165 114.767 125.165H113.932V132H111.562ZM127.892 127.636C127.892 128.608 127.703 129.428 127.325 130.095C126.947 130.76 126.438 131.264 125.795 131.608C125.153 131.949 124.438 132.119 123.648 132.119C122.852 132.119 122.134 131.947 121.491 131.604C120.852 131.257 120.344 130.751 119.966 130.087C119.591 129.419 119.403 128.602 119.403 127.636C119.403 126.665 119.591 125.847 119.966 125.182C120.344 124.514 120.852 124.01 121.491 123.669C122.134 123.325 122.852 123.153 123.648 123.153C124.438 123.153 125.153 123.325 125.795 123.669C126.438 124.01 126.947 124.514 127.325 125.182C127.703 125.847 127.892 126.665 127.892 127.636ZM125.455 127.636C125.455 127.114 125.385 126.673 125.246 126.315C125.109 125.955 124.906 125.682 124.636 125.497C124.369 125.31 124.04 125.216 123.648 125.216C123.256 125.216 122.925 125.31 122.655 125.497C122.388 125.682 122.185 125.955 122.045 126.315C121.909 126.673 121.841 127.114 121.841 127.636C121.841 128.159 121.909 128.601 122.045 128.962C122.185 129.32 122.388 129.592 122.655 129.78C122.925 129.964 123.256 130.057 123.648 130.057C124.04 130.057 124.369 129.964 124.636 129.78C124.906 129.592 125.109 129.32 125.246 128.962C125.385 128.601 125.455 128.159 125.455 127.636ZM130.653 132L128.08 123.273H130.722L131.915 128.642H131.983L133.398 123.273H135.477L136.892 128.659H136.96L138.153 123.273H140.795L138.222 132H135.955L134.472 127.125H134.403L132.92 132H130.653ZM141.562 132V123.273H147.852V125.182H143.932V126.682H147.528V128.591H143.932V130.091H147.835V132H141.562ZM149.027 132V123.273H152.794C153.442 123.273 154.009 123.391 154.495 123.626C154.98 123.862 155.358 124.202 155.628 124.645C155.898 125.088 156.033 125.619 156.033 126.239C156.033 126.864 155.894 127.391 155.615 127.82C155.34 128.249 154.952 128.572 154.452 128.791C153.955 129.01 153.374 129.119 152.709 129.119H150.459V127.278H152.232C152.51 127.278 152.748 127.244 152.944 127.176C153.142 127.105 153.294 126.993 153.4 126.839C153.507 126.686 153.561 126.486 153.561 126.239C153.561 125.989 153.507 125.786 153.4 125.629C153.294 125.47 153.142 125.354 152.944 125.28C152.748 125.203 152.51 125.165 152.232 125.165H151.397V132H149.027ZM154.141 127.994L156.323 132H153.749L151.618 127.994H154.141ZM159.434 132V123.273H163.218C163.882 123.273 164.441 123.362 164.892 123.541C165.347 123.72 165.689 123.973 165.919 124.3C166.152 124.626 166.269 125.011 166.269 125.455C166.269 125.776 166.198 126.068 166.056 126.332C165.917 126.597 165.721 126.818 165.468 126.997C165.215 127.173 164.919 127.295 164.581 127.364V127.449C164.956 127.463 165.297 127.558 165.604 127.734C165.911 127.908 166.155 128.148 166.337 128.455C166.519 128.759 166.61 129.116 166.61 129.528C166.61 130.006 166.485 130.43 166.235 130.803C165.988 131.175 165.635 131.467 165.178 131.68C164.721 131.893 164.175 132 163.542 132H159.434ZM161.803 130.108H162.911C163.309 130.108 163.607 130.034 163.806 129.886C164.005 129.736 164.104 129.514 164.104 129.222C164.104 129.017 164.057 128.844 163.963 128.702C163.87 128.56 163.736 128.452 163.563 128.378C163.392 128.304 163.186 128.267 162.945 128.267H161.803V130.108ZM161.803 126.801H162.775C162.982 126.801 163.165 126.768 163.324 126.703C163.483 126.638 163.607 126.544 163.695 126.422C163.786 126.297 163.831 126.145 163.831 125.966C163.831 125.696 163.735 125.49 163.542 125.348C163.348 125.203 163.104 125.131 162.809 125.131H161.803V126.801ZM169.819 123.273V132H167.449V123.273H169.819Z" fill="#A52A2A"/>
<rect x="69.5" y="108.5" width="143" height="38" rx="19" stroke="#A52A2A" stroke-width="3"/>
<rect x="190.5" y="1.5" width="122" height="38" rx="19" fill="#EBC4C4"/>
<path d="M237.727 16.2727H240.097V21.8636C240.097 22.5284 239.938 23.1037 239.619 23.5895C239.304 24.0724 238.864 24.446 238.298 24.7102C237.733 24.9716 237.077 25.1023 236.33 25.1023C235.577 25.1023 234.918 24.9716 234.352 24.7102C233.787 24.446 233.347 24.0724 233.031 23.5895C232.719 23.1037 232.562 22.5284 232.562 21.8636V16.2727H234.932V21.6591C234.932 21.929 234.991 22.1705 235.111 22.3835C235.23 22.5937 235.395 22.7585 235.605 22.8778C235.818 22.9972 236.06 23.0568 236.33 23.0568C236.602 23.0568 236.844 22.9972 237.054 22.8778C237.264 22.7585 237.429 22.5937 237.548 22.3835C237.668 22.1705 237.727 21.929 237.727 21.6591V16.2727ZM248.774 16.2727V25H246.797L243.643 20.4148H243.592V25H241.223V16.2727H243.234L246.336 20.8409H246.404V16.2727H248.774ZM252.264 16.2727V25H249.895V16.2727H252.264ZM253.148 18.1818V16.2727H260.733V18.1818H258.108V25H255.773V18.1818H253.148ZM261.267 16.2727H263.909L265.614 19.8182H265.682L267.386 16.2727H270.028L266.824 22.2557V25H264.472V22.2557L261.267 16.2727Z" fill="#A52A2A"/>
<rect x="190.5" y="1.5" width="122" height="38" rx="19" stroke="#A52A2A" stroke-width="3"/>
</svg>
