<svg width="220" height="41" viewBox="0 0 220 41" fill="none" xmlns="http://www.w3.org/2000/svg">
<path d="M19.16 30.74V20.06H17.12V24.46H12.8V20.06H10.76V30.74H12.8V26.18H17.12V30.74H19.16ZM0 40.46V10.5H29.96V40.46H0ZM31.5625 40.46V10.5H61.5225V40.46H31.5625ZM81.645 30.74V28.9H76.565V26.18H80.485V24.46H76.565V21.9H81.645V20.06H74.525V30.74H81.645ZM63.125 40.46V10.5H93.085V40.46H63.125ZM113.848 30.74V20.06H111.848V27.1H111.768L108.128 20.06H105.448V30.74H107.448V22.98H107.528L111.528 30.74H113.848ZM94.6875 40.46V10.5H124.648V40.46H94.6875ZM146.05 30.58L143.37 26.58C144.69 26.06 145.53 25.02 145.53 23.46C145.53 21.06 143.77 20.06 141.29 20.06H137.93V30.74H139.97V26.98H141.45L143.77 30.74H146.05V30.58ZM143.45 23.46C143.45 24.9 142.37 25.26 141.17 25.26H139.97V21.82H141.33C142.53 21.82 143.45 22.26 143.45 23.46ZM126.25 40.46V10.5H156.21V40.46H126.25ZM175.333 30.74V29.1H173.813V21.7H175.333V20.06H170.213V21.7H171.773V29.1H170.213V30.74H175.333ZM157.813 40.46V10.5H187.773V40.46H157.813ZM208.935 30.58L204.615 24.94L208.695 20.22V20.06H206.335L202.295 24.74V20.06H200.255V30.74H202.295V27.5L203.255 26.38L206.535 30.74H208.935V30.58ZM189.375 40.46V10.5H219.335V40.46H189.375Z" fill="#FF7F50"/>
<path d="M46.6992 0L61.5156 10.5H31.5586L46.6992 0Z" fill="#FF7F50"/>
</svg>
