<svg width="220" height="41" viewBox="0 0 220 41" fill="none" xmlns="http://www.w3.org/2000/svg">
<path d="M19.16 30.74V20.06H17.12V24.46H12.8V20.06H10.76V30.74H12.8V26.18H17.12V30.74H19.16ZM0 40.46V10.5H29.96V40.46H0ZM49.0825 27.82V20.06H47.0425V27.14C47.0425 28.22 46.8425 29.06 45.5625 29.06C44.8825 29.06 44.4025 28.94 43.7625 28.74H43.6025V30.42C44.2825 30.74 45.1625 30.9 45.7225 30.9C47.8025 30.9 49.0825 29.74 49.0825 27.82ZM31.5625 40.46V10.5H61.5225V40.46H31.5625ZM81.645 30.74V28.9H76.565V26.18H80.485V24.46H76.565V21.9H81.645V20.06H74.525V30.74H81.645ZM63.125 40.46V10.5H93.085V40.46H63.125ZM114.488 30.74V20.06H112.008L109.688 25.42H109.608L107.288 20.06H104.808V30.74H106.808V23.46H106.888L108.968 27.98H110.328L112.408 23.46H112.488V30.74H114.488ZM94.6875 40.46V10.5H124.648V40.46H94.6875ZM143.45 23.46C143.45 24.9 142.37 25.26 141.17 25.26H139.97V21.82H141.33C142.53 21.82 143.45 22.26 143.45 23.46ZM126.25 40.46V10.5H156.21V40.46H126.25ZM157.813 40.46V10.5H187.773V40.46H157.813ZM189.375 40.46V10.5H219.335V40.46H189.375Z" fill="white"/>
<path d="M15 0L30 9H0L15 0Z" fill="white"/>
</svg>
