<svg width="385" height="54" viewBox="0 0 385 54" fill="none" xmlns="http://www.w3.org/2000/svg">
<path d="M33.93 36.17V17.48H30.36V25.18H22.8V17.48H19.23V36.17H22.8V28.19H30.36V36.17H33.93ZM0.4 53.18V0.749999H52.83V53.18H0.4ZM86.2944 31.06V17.48H82.7244V29.87C82.7244 31.76 82.3744 33.23 80.1344 33.23C78.9444 33.23 78.1044 33.02 76.9844 32.67H76.7044V35.61C77.8944 36.17 79.4344 36.45 80.4144 36.45C84.0544 36.45 86.2944 34.42 86.2944 31.06ZM55.6344 53.18V0.749999H108.064V53.18H55.6344ZM143.279 36.17V32.95H134.389V28.19H141.249V25.18H134.389V20.7H143.279V17.48H130.819V36.17H143.279ZM110.869 53.18V0.749999H163.299V53.18H110.869ZM200.753 36.17V17.48H196.413L192.353 26.86H192.213L188.153 17.48H183.813V36.17H187.313V23.43H187.453L191.093 31.34H193.473L197.113 23.43H197.253V36.17H200.753ZM166.103 53.18V0.749999H218.533V53.18H166.103ZM255.988 35.89L251.298 28.89C253.608 27.98 255.078 26.16 255.078 23.43C255.078 19.23 251.998 17.48 247.658 17.48H241.778V36.17H245.348V29.59H247.938L251.998 36.17H255.988V35.89ZM251.438 23.43C251.438 25.95 249.548 26.58 247.448 26.58H245.348V20.56H247.728C249.828 20.56 251.438 21.33 251.438 23.43ZM221.338 53.18V0.749999H273.768V53.18H221.338ZM307.232 36.17V33.3H304.572V20.35H307.232V17.48H298.272V20.35H301.002V33.3H298.272V36.17H307.232ZM276.572 53.18V0.749999H329.002V53.18H276.572ZM366.036 35.89L358.476 26.02L365.616 17.76V17.48H361.486L354.416 25.67V17.48H350.846V36.17H354.416V30.5L356.096 28.54L361.836 36.17H366.036V35.89ZM331.806 53.18V0.749999H384.236V53.18H331.806Z" fill="white"/>
</svg>
